<?xml version="1.0" encoding="UTF-8"?>
<svg width="16px" height="12px" viewBox="0 0 16 12" version="1.1" xmlns="http://www.w3.org/2000/svg" xmlns:xlink="http://www.w3.org/1999/xlink">
    <title>eye</title>
    <g id="v1.0.5_20230508" stroke="none" stroke-width="1" fill="none" fill-rule="evenodd">
        <g id="登录" transform="translate(-1599.000000, -498.000000)" fill-rule="nonzero">
            <g id="编组-2" transform="translate(1291.000000, 295.000000)">
                <g id="eye" transform="translate(307.995001, 201.000000)">
                    <rect id="矩形" fill="#000000" opacity="0" x="0" y="0" width="16" height="16"></rect>
                    <path d="M8,2.83333333 C6.20833333,2.83333333 4.45666667,3.72 2.942,5.15833333 C1.75633333,6.28433333 0.833333328,7.67366667 0.833333328,8.33333333 C0.833333328,8.99333333 1.75666666,10.3823333 2.942,11.5083333 C4.45633333,12.9466667 6.20833333,13.8333333 8,13.8333333 C9.79166667,13.8333333 11.5433333,12.9466667 13.058,11.5083333 C14.2436667,10.3823333 15.1666667,8.993 15.1666667,8.33333333 C15.1666667,7.67333333 14.2433333,6.28433333 13.058,5.15833333 C11.5436667,3.72 9.79166667,2.83333333 8,2.83333333 Z M8,3.83333333 C9.498,3.83333333 11.0243333,4.606 12.3693333,5.88333333 C12.4483333,5.95833333 12.526,6.035 12.602,6.11233333 L12.752,6.26866667 C12.8753333,6.39966667 12.9936667,6.532 13.1056667,6.664 L13.2373333,6.82166667 L13.362,6.97733333 L13.422,7.054 L13.5363333,7.20533333 L13.643,7.352 C13.677,7.4 13.7096667,7.447 13.741,7.493 L13.8303333,7.628 L13.9103333,7.75533333 C14.0733333,8.02266666 14.1666667,8.23066666 14.1666667,8.33333333 C14.1666667,8.436 14.0733333,8.644 13.9103333,8.91133333 L13.8303333,9.03866667 L13.741,9.17366667 L13.693,9.24366667 L13.5906667,9.38766667 C13.5726772,9.41231169 13.5545658,9.43686754 13.5363333,9.46133333 L13.422,9.61233333 L13.3006667,9.767 C13.2796784,9.79309947 13.258567,9.81909976 13.2373333,9.845 L13.1056667,10.0026667 C12.9936667,10.1343333 12.8753333,10.267 12.7523333,10.398 L12.6023333,10.5543333 C12.526,10.6316667 12.4483333,10.7083333 12.3693333,10.7833333 C11.0243333,12.0606667 9.498,12.8333333 8,12.8333333 C6.502,12.8333333 4.97566667,12.0606667 3.63066667,10.7833333 C3.55166667,10.7083333 3.474,10.6316667 3.398,10.5543333 L3.248,10.398 C3.12466667,10.267 3.00633333,10.1346667 2.89433333,10.0026667 L2.76266667,9.845 L2.638,9.68933333 L2.578,9.61266667 L2.46366667,9.46133333 L2.357,9.31466667 C2.32383421,9.26801555 2.2911657,9.22101289 2.259,9.17366667 L2.16966667,9.03866667 L2.08966667,8.91133333 C1.92666667,8.644 1.83333333,8.436 1.83333333,8.33333333 C1.83333333,8.23066666 1.92666666,8.02266666 2.08966667,7.75533333 L2.16966667,7.628 L2.259,7.493 L2.307,7.423 L2.40933333,7.279 L2.46366667,7.20533333 L2.578,7.05433333 L2.69933333,6.89966667 L2.76266667,6.82166667 L2.89433333,6.664 C3.00633333,6.53233333 3.12466666,6.39966667 3.24766667,6.26866667 L3.39766667,6.11233333 C3.474,6.035 3.55166667,5.95833333 3.63066667,5.88333333 C4.97566667,4.606 6.502,3.83333333 8,3.83333333 Z" id="形状" fill="#3F495C"></path>
                    <path d="M8,5.83333333 C6.61928813,5.83333333 5.5,6.95262145 5.5,8.33333333 C5.5,9.7140452 6.61928813,10.8333333 8,10.8333333 C9.38071187,10.8333333 10.5,9.7140452 10.5,8.33333333 C10.5,6.95262145 9.38071187,5.83333333 8,5.83333333 Z M8,6.83333333 C8.82842712,6.83333333 9.5,7.5049062 9.5,8.33333333 C9.5,9.16176045 8.82842712,9.83333333 8,9.83333333 C7.17157288,9.83333333 6.5,9.16176045 6.5,8.33333333 C6.5,7.5049062 7.17157288,6.83333333 8,6.83333333 L8,6.83333333 Z" id="形状" fill="#3F495C"></path>
                </g>
            </g>
        </g>
    </g>
</svg>