<?xml version="1.0" encoding="UTF-8"?>
<svg width="12px" height="16px" viewBox="0 0 12 16" version="1.1" xmlns="http://www.w3.org/2000/svg" xmlns:xlink="http://www.w3.org/1999/xlink">
    <title>lock</title>
    <g id="v1.0.5_20230508" stroke="none" stroke-width="1" fill="none" fill-rule="evenodd">
        <g id="登录" transform="translate(-1349.000000, -496.000000)" fill-rule="nonzero">
            <g id="编组-2" transform="translate(1291.000000, 295.000000)">
                <g id="lock" transform="translate(56.000000, 201.000000)">
                    <rect id="矩形" fill-opacity="0" fill="#000000" opacity="0" x="0" y="0" width="16" height="16"></rect>
                    <path d="M12,5.5 L4,5.5 C2.98747796,5.5 2.16666667,6.32081129 2.16666667,7.33333333 L2.16666667,13.3333333 C2.16666667,13.8195636 2.35982087,14.2858791 2.70363757,14.6296958 C3.04745426,14.9735125 3.51376977,15.1666667 4,15.1666667 L12,15.1666667 C12.4862302,15.1666667 12.9525457,14.9735125 13.2963624,14.6296958 C13.6401791,14.2858791 13.8333333,13.8195636 13.8333333,13.3333333 L13.8333333,7.33333333 C13.8333333,6.32081129 13.012522,5.5 12,5.5 L12,5.5 Z M4,6.5 L12,6.5 C12.4602373,6.5 12.8333333,6.87309604 12.8333333,7.33333333 L12.8333333,13.3333333 C12.8333333,13.5543471 12.745536,13.7663087 12.5892557,13.922589 C12.4329753,14.0788693 12.2210137,14.1666667 12,14.1666667 L4,14.1666667 C3.77898626,14.1666667 3.56702466,14.0788693 3.41074435,13.922589 C3.25446403,13.7663087 3.16666667,13.5543471 3.16666667,13.3333333 L3.16666667,7.33333333 C3.16666667,6.87309604 3.53976271,6.5 4,6.5 Z" id="形状" fill="#3F495C"></path>
                    <path d="M8,9.16666667 C8.25754064,9.16666667 8.47294277,9.36231553 8.49766667,9.61866667 L8.5,9.66666667 L8.5,11 C8.49986797,11.2667054 8.2904257,11.4863578 8.0240284,11.4991748 C7.7576311,11.5119918 7.52806908,11.3134609 7.50233333,11.048 L7.5,11 L7.5,9.66666667 C7.5,9.3905243 7.72385763,9.16666667 8,9.16666667 Z M8,0.833333328 C9.89666667,0.833333328 11.4476667,2.29666666 11.4986667,4.12866667 L11.5,4.222 L11.5,5.66666667 L10.5,5.66666667 L10.5,4.22233333 C10.5,2.90733333 9.38466667,1.83333333 8,1.83333333 C6.643,1.83333333 5.54466667,2.86466666 5.50133333,4.14333333 L5.5,4.22233333 L5.5,5.66666667 L4.5,5.66666667 L4.5,4.22233333 C4.5,2.34633333 6.07133333,0.833333328 8,0.833333328 Z" id="形状" fill="#3F495C"></path>
                </g>
            </g>
        </g>
    </g>
</svg>