<?xml version="1.0" encoding="UTF-8"?>
<svg width="14px" height="14px" viewBox="0 0 14 14" version="1.1" xmlns="http://www.w3.org/2000/svg" xmlns:xlink="http://www.w3.org/1999/xlink">
    <title>user</title>
    <g id="v1.0.5_20230508" stroke="none" stroke-width="1" fill="none" fill-rule="evenodd">
        <g id="登录" transform="translate(-1348.000000, -433.000000)" fill-rule="nonzero">
            <g id="编组-2" transform="translate(1291.000000, 295.000000)">
                <g id="user" transform="translate(56.000000, 137.000000)">
                    <rect id="矩形" fill-opacity="0" fill="#000000" opacity="0" x="0" y="0" width="16" height="16"></rect>
                    <path d="M12.6666667,1.5 L3.33333333,1.5 C2.32081129,1.5 1.5,2.32081129 1.5,3.33333333 L1.5,12.6666667 C1.5,13.6791887 2.32081129,14.5 3.33333333,14.5 L12.6666667,14.5 C13.1528969,14.5 13.6192124,14.3068458 13.9630291,13.9630291 C14.3068458,13.6192124 14.5,13.1528969 14.5,12.6666667 L14.5,3.33333333 C14.5,2.32081129 13.6791887,1.5 12.6666667,1.5 Z M3.33333333,2.5 L12.6666667,2.5 C13.126904,2.5 13.5,2.87309604 13.5,3.33333333 L13.5,12.6666667 C13.5,12.8876804 13.4122026,13.099642 13.2559223,13.2559223 C13.099642,13.4122026 12.8876804,13.5 12.6666667,13.5 L3.33333333,13.5 C2.87309604,13.5 2.5,13.126904 2.5,12.6666667 L2.5,3.33333333 C2.5,2.87309604 2.87309604,2.5 3.33333333,2.5 Z" id="形状" fill="#3F495C"></path>
                    <path d="M8,10.482 C10.1843333,10.482 12.026,11.8826667 12.1823333,13.73 C12.2055293,14.0052219 12.0012219,14.2471374 11.726,14.2703333 C11.4507781,14.2935293 11.2088626,14.0892219 11.1856667,13.814 C11.077,12.529 9.70033334,11.482 8,11.482 C6.3,11.482 4.92333333,12.529 4.81433333,13.814 C4.79113736,14.0892219 4.54922189,14.2935293 4.274,14.2703333 C3.99877811,14.2471374 3.79447072,14.0052219 3.81766667,13.73 C3.97433334,11.8826667 5.81566667,10.482 8,10.482 L8,10.482 Z M8,4.49999924 C7.29754404,4.49946884 6.62370622,4.77828318 6.1269947,5.2749947 C5.63028318,5.77170622 5.35146884,6.44554404 5.35199924,7.148 C5.35199924,8.613 6.53666667,9.802 8,9.802 C9.46333333,9.802 10.6480008,8.613 10.6480008,7.148 C10.6485312,6.44554404 10.3697168,5.77170622 9.8730053,5.2749947 C9.37629378,4.77828318 8.70245596,4.49946884 8,4.49999924 Z M8,5.49999878 C8.43723953,5.4994684 8.85672372,5.67292576 9.16589898,5.98210102 C9.47507424,6.29127628 9.6485316,6.71076047 9.64800122,7.148 C9.64800122,8.06133333 8.91033333,8.802 8,8.802 C7.09,8.802 6.35199878,8.06133333 6.35199878,7.148 C6.3514684,6.71076047 6.52492576,6.29127628 6.83410102,5.98210102 C7.14327628,5.67292576 7.56276047,5.4994684 8,5.49999878 L8,5.49999878 Z" id="形状" fill="#3F495C"></path>
                    <path d="M8,4.49999924 C7.29754404,4.49946884 6.62370622,4.77828318 6.1269947,5.2749947 C5.63028318,5.77170622 5.35146884,6.44554404 5.35199924,7.148 C5.35199924,8.613 6.53666667,9.802 8,9.802 C9.46333333,9.802 10.6480008,8.613 10.6480008,7.148 C10.6485312,6.44554404 10.3697168,5.77170622 9.8730053,5.2749947 C9.37629378,4.77828318 8.70245596,4.49946884 8,4.49999924 Z M8,5.49999878 C8.43723953,5.4994684 8.85672372,5.67292576 9.16589898,5.98210102 C9.47507424,6.29127628 9.6485316,6.71076047 9.64800122,7.148 C9.64800122,8.06133333 8.91033333,8.802 8,8.802 C7.08966667,8.802 6.35199878,8.06133333 6.35199878,7.148 C6.3514684,6.71076047 6.52492576,6.29127628 6.83410102,5.98210102 C7.14327628,5.67292576 7.56276047,5.4994684 8,5.49999878 L8,5.49999878 Z" id="形状" fill="#3F495C"></path>
                </g>
            </g>
        </g>
    </g>
</svg>